# xmcd
#
# Track frame offsets:
#	150
#	12574
#	25055
#	36273
#	48278
#	59664
#	69866
#	80761
#	93943
#	104851
#	116481
#	126219
#	138607
#	151053
#	167729
#	181154
#	191471
#	199937
#	211226
#	224436
#
# Disc length: 3146 seconds
#
# Revision: 1
# Processed by: cddbd v1.5.2PL0 Copyright (c) Steve Scherf et al.
# Submitted via: audiograbber 1.83.01
#
DISCID=220c4814
DTITLE=Dvorana Slavy - Dvorana Slavy Country 1
DYEAR=1900
DGENRE=Country
TTITLE0=Hank Williams - Lovesick Blues
TTITLE1=Johnny Cash - Folsom Prison Blues
TTITLE2=Hank Snow - A Fool Such As I
TTITLE3=Sons of the Pioneer - I Hang Up My Head and Cry
TTITLE4=Bill Monroe - New Mule Skinner Blues
TTITLE5=Carl Perlina - Blue Suede Shoes
TTITLE6=Elvis Presley - Mystery Train
TTITLE7=Hank Williams - Mind Your Own Business
TTITLE8=Hank Snow - Let Me Go Lover
TTITLE9=Hank Williams - Kaw-Liga
TTITLE10=Johnny Cash - Rock Island Line
TTITLE11=Sons of the Pioneers - Cool Water
TTITLE12=Bill Monroe - Uncle Pen
TTITLE13=Everly Brothers - Roving Gambler
TTITLE14=Patty Page - Mockin' Bird Hill
TTITLE15=Hank Thompson - Wake Up Irene
TTITLE16=Jerry Lee Lewis - Great Balls of Fire
TTITLE17=Elvis Presley - I Forgot To Remember To Forget
TTITLE18=Hank Williams - Hey Good Lookin'
TTITLE19=Ray Price - Crazy Arms
EXTD=
EXTT0=
EXTT1=
EXTT2=
EXTT3=
EXTT4=
EXTT5=
EXTT6=
EXTT7=
EXTT8=
EXTT9=
EXTT10=
EXTT11=
EXTT12=
EXTT13=
EXTT14=
EXTT15=
EXTT16=
EXTT17=
EXTT18=
EXTT19=
PLAYORDER=
